<svg version="1.1" xmlns="http://www.w3.org/2000/svg" xmlns:xlink="http://www.w3.org/1999/xlink" width="568" height="617"><desc>frame%20donasi%20(unregsitered%20user)%0A%0Aparticipant%20form1%0Aparticipant%20form2%0Adatabase%20database%20%23orange%0Aparticipant%20info%0A%0Anote%20over%20form1%3A%20input%20nama%2C%5Cnemail%2C%20nominal%0Aform1-%3Eform2%3Akirim%20data%0Adestroysilent%20form1%0Anote%20over%20form2%3A%20input%20catatan%2Fdoa%2C%5Cnbukti%20transfer%0Aform2-%3Edatabase%3A%20kirim%20data%0Adestroysilent%20form2%0Adatabase--%3Einfo%3A%20kirim%20respon%0Adestroysilent%20database%0Anote%20over%20info%3A%20info%20sukses%20%5Bstatus%2C%5Cnnomor%20referensi%5D%20atau%5Cngagal%20%5Bstatus%5D%0Adestroysilent%20info</desc><defs/><g><g/><g/><g/><g/><g/><g/><g/><g/><g/><g/><g><rect fill="white" stroke="none" x="0" y="0" width="568" height="617"/></g><g/><g><path fill="none" stroke="black" paint-order="fill stroke markers" d=" M 104.43160388398437 137.052355687 L 104.43160388398437 269.36750241699997" stroke-miterlimit="10" stroke-width="1.3612669416666667" stroke-dasharray="12.565541,5.445067766666667"/><path fill="none" stroke="black" paint-order="fill stroke markers" d=" M 211.53541994309896 137.052355687 L 211.53541994309896 393.51504749699996" stroke-miterlimit="10" stroke-width="1.3612669416666667" stroke-dasharray="12.565541,5.445067766666667"/><path fill="none" stroke="black" paint-order="fill stroke markers" d=" M 318.6392360022136 137.052355687 L 318.6392360022136 439.25361673699996" stroke-miterlimit="10" stroke-width="1.3612669416666667" stroke-dasharray="12.565541,5.445067766666667"/><path fill="none" stroke="black" paint-order="fill stroke markers" d=" M 442.03509002519536 137.052355687 L 442.03509002519536 533.9977958769999" stroke-miterlimit="10" stroke-width="1.3612669416666667" stroke-dasharray="12.565541,5.445067766666667"/></g><g><path fill="none" stroke="none"/><g><path fill="white" stroke="black" paint-order="fill stroke markers" d=" M 67.97133603785936 92.947306777 L 140.89187173010936 92.947306777 L 140.89187173010936 137.052355687 L 67.97133603785936 137.052355687 L 67.97133603785936 92.947306777 Z" stroke-miterlimit="10" stroke-width="2.613632528" stroke-dasharray=""/></g><g><g/><text fill="black" stroke="none" font-family="sans-serif" font-size="11pt" font-style="normal" font-weight="normal" text-decoration="normal" x="85.69503161835937" y="120.717152387" text-anchor="start" dominant-baseline="alphabetic" xml:space="preserve">form1</text></g><path fill="none" stroke="none"/><g><path fill="white" stroke="black" paint-order="fill stroke markers" d=" M 175.07515209697397 92.947306777 L 247.99568778922398 92.947306777 L 247.99568778922398 137.052355687 L 175.07515209697397 137.052355687 L 175.07515209697397 92.947306777 Z" stroke-miterlimit="10" stroke-width="2.613632528" stroke-dasharray=""/></g><g><g/><text fill="black" stroke="none" font-family="sans-serif" font-size="11pt" font-style="normal" font-weight="normal" text-decoration="normal" x="192.79884767747396" y="120.717152387" text-anchor="start" dominant-baseline="alphabetic" xml:space="preserve">form2</text></g><g><path fill="orange" stroke="black" paint-order="fill stroke markers" d=" M 294.7898391842136 105.03535721899999 L 294.7898391842136 70.731430289 L 342.4886328202136 70.731430289 L 342.4886328202136 105.03535721899999" stroke-miterlimit="10" stroke-width="2.7769845610000004" stroke-dasharray=""/><path fill="orange" stroke="black" paint-order="fill stroke markers" d=" M 342.4886328202136 69.5389604481 L 342.4874403603099 69.64677099301662 L 342.48386309984386 69.75457075696859 L 342.47790139653847 69.86234896006935 L 342.46955584655916 69.9700948245884 L 342.45882728445395 70.07779757602908 L 342.4457167830701 70.18544644420601 L 342.4302256534469 70.29303066432205 L 342.41235544468424 70.40053947804485 L 342.39210794378823 70.50796213458266 L 342.36948517549206 70.6152878917593 L 342.34448940205374 70.72250601708852 L 342.3171231230297 70.82960578884712 L 342.2873890750251 70.93657649714719 L 342.25529023141996 71.04340744500702 L 342.2208298020719 71.15008794942086 L 342.18401123299503 71.25660734242717 L 342.1448382060157 71.36295497217543 L 342.10331463840396 71.46912020399125 L 342.0594446824819 71.57509242143996 L 342.01323272520864 71.6808610273881 L 341.96468338774133 71.78641544506323 L 341.9138015249732 71.89174511911152 L 341.8605922250483 71.99683951665337 L 341.80506080885215 72.10168812833659 L 341.7472128294801 72.20628046938738 L 341.6870540716819 72.3106060806588 L 341.62459055128323 72.41465452967667 L 341.55982851458407 72.51841541168278 L 341.4927744377341 72.6218783506754 L 341.4234350260851 72.72503300044686 L 341.35181721352046 72.82786904561813 L 341.27792816176185 72.9303762026704 L 341.2017752596528 73.03254422097338 L 341.12336612241995 73.13436288381038 L 341.0427085909119 73.23582200939998 L 340.9598107308144 73.33691145191415 L 340.8746808318445 73.43762110249288 L 340.7873274069211 73.53794089025506 L 340.69775919131393 73.63786078330548 L 340.6059851417699 73.73737078973812 L 340.51201443561746 73.83646095863527 L 340.4158564698489 73.9351213810626 L 340.31752086018076 74.0333421910601 L 340.217017440092 74.1311135666286 L 340.1143562598408 74.22842573071202 L 340.0095475854598 74.32526895217507 L 339.90260189772897 74.42163354677628 L 339.793529891128 74.5175098781365 L 339.68234247276666 74.61288835870249 L 339.56905076129414 74.7077594507057 L 339.4536660857871 74.80211366711595 L 339.3361999846171 74.89594157259025 L 339.2166642042962 74.98923378441623 L 339.09507069830295 75.08198097345047 L 338.9714316258865 75.17417386505133 L 338.84575935085115 75.2658032400065 L 338.71806644031966 75.35685993545484 L 338.5883656634767 75.44733484580266 L 338.45666999029174 75.53721892363434 L 338.32299259022255 75.62650318061701 L 338.1873468308976 75.71517868839936 L 338.0497462767798 75.80323657950451 L 337.9102046878099 75.89066804821674 L 337.7687360180305 75.97746435146202 L 337.6253544141908 76.06361680968237 L 337.4800742143316 76.14911680770375 L 337.3329099463518 76.23395579559762 L 337.18387632655555 76.31812528953589 L 337.03298825818075 76.4016168726393 L 336.8802608299084 76.4844221958191 L 336.7257093143541 76.56653297861202 L 336.56934916654063 76.64794101000817 L 336.4111960223524 76.72863814927226 L 336.25126569697204 76.8086163267576 L 336.0895741832989 76.88786754471312 L 335.9261376503495 76.96638387808304 L 335.76097244164106 77.04415747529944 L 335.5940950735567 77.12118055906745 L 335.4255222336942 77.19744542714287 L 335.25527077919713 77.27294445310241 L 335.08335773506894 77.34767008710642 L 334.9098002924709 77.42161485665378 L 334.73461580700257 77.49477136732914 L 334.55782179696655 77.56713230354238 L 334.3794359416165 77.63869042926021 L 334.1994760793893 77.70943858872968 L 334.0179602061212 77.77936970719378 L 333.8349064732482 77.84847679159897 L 333.6503331859912 77.91675293129438 L 333.46425880152503 77.98419129872295 L 333.27670192713305 78.0507851501041 L 333.0876813183464 78.11652782610824 L 332.8972158770685 78.18141275252252 L 332.70532464968477 78.24543344090837 L 332.51202682515793 78.30858348925032 L 332.3173417331094 78.37085658259615 L 332.1212888418862 78.43224649368841 L 331.923887756614 78.49274708358716 L 331.7251582172369 78.55235230228384 L 331.5251200965432 78.61105618930621 L 331.3237933981783 78.66885287431454 L 331.1211982546442 78.72573657768845 L 330.9173549252865 78.78170161110502 L 330.7122837942681 78.83674237810756 L 330.5060053685314 78.89085337466523 L 330.2985402757471 78.94402918972344 L 330.0899092622514 78.99626450574503 L 329.8801331909719 79.04755409924192 L 329.66923303934095 79.0978928412975 L 329.45722989719786 79.1472756980795 L 329.2441449646803 79.19569773134342 L 329.02999955010387 79.24315409892625 L 328.81481506783155 79.2896400552308 L 328.5986130361323 79.3351509517002 L 328.38141507502917 79.37968223728268 L 328.1632429041372 79.42322945888682 L 327.9441183404916 79.46578826182676 L 327.7240632963663 79.50735439025765 L 327.5030997770822 79.54792368760128 L 327.28124987880716 79.58749209696174 L 327.0585357863461 79.62605566153107 L 326.8349797709227 79.66361052498493 L 326.6106041879522 79.70015293186829 L 326.38543147480596 79.7356792279709 L 326.1594841485675 79.77018586069276 L 325.9327848037813 79.80366937939937 L 325.7053561101929 79.83612643576673 L 325.4772208104821 79.86755378411627 L 325.2484017179888 79.89794828173933 L 325.01892171443154 79.92730688921151 L 324.7888037476194 79.95562667069649 L 324.5580708291574 79.98290479423973 L 324.32674603214497 80.00913853205162 L 324.0948524888692 80.03432526078025 L 323.86241338849106 80.0584624617737 L 323.6294519747269 80.08154772133202 L 323.3959915435241 80.10357873094847 L 323.162055440731 80.12455328754045 L 322.9276670597631 80.14446929366979 L 322.6928498392631 80.16332475775246 L 322.4576272607574 80.18111779425777 L 322.2220228463079 80.19784662389691 L 321.98606015615957 80.21350957380085 L 321.74976278638485 80.22810507768763 L 321.5131543665238 80.24163167601905 L 321.2762585572213 80.25408801614655 L 321.03909904786076 80.26547285244648 L 320.8016995541955 80.27578504644471 L 320.5640838159772 80.28502356693042 L 320.3262755945815 80.29318749005928 L 320.0882986706324 80.30027599944577 L 319.85017684162403 80.30628838624486 L 319.61193391954083 80.31122404922287 L 319.3735937284765 80.31508249481763 L 319.13518010225147 80.31786333718779 L 318.89671688202975 80.31956629825143 L 318.6582279139346 80.32019120771386 L 318.4197370466641 80.31973800308465 L 318.18126812910623 80.31820672968391 L 317.9428450079541 80.31559754063768 L 317.704491525321 80.3119106968627 L 317.46623151635663 80.30714656704026 L 317.2280888068634 80.3013056275794 L 316.9900872109137 80.29438846256917 L 316.7522505284689 80.28639576372034 L 316.51460254299894 80.27732833029609 L 316.2771670191044 80.26718706903225 L 316.0399677001398 80.25597299404646 L 315.80302830583935 80.2436872267369 L 315.56637252994506 80.23033099567004 L 315.33002403783723 80.21590563645788 L 315.0940064641682 80.20041259162431 L 314.85834341049866 80.1838534104609 L 314.6230584429375 80.16622974887196 L 314.3881750897855 80.14754336920898 L 314.1537168391822 80.12779614009435 L 313.91970713675727 80.1069900362345 L 313.68616938328597 80.08512713822252 L 313.453126932349 80.06220963232995 L 313.2206030879973 80.03823981028832 L 312.9886211024215 80.01322006905984 L 312.75720417362686 79.98715291059779 L 312.52637544311335 79.96004094159626 L 312.2961579935618 79.93188687322962 L 312.06657484652516 79.90269352088119 L 311.83764896012696 79.8724638038619 L 311.6094032267649 79.84120074511826 L 311.3818604708223 79.80890747093008 L 311.15504344638504 79.77558721059789 L 310.9289748349665 79.74124329611995 L 310.70367724323955 79.70587916185907 L 310.4791732007755 79.66949834419921 L 310.2554851577916 79.63210448119185 L 310.0326354829057 79.5937013121921 L 309.8106464608996 79.55429267748485 L 309.58954029049045 79.51388251790075 L 309.36933908211114 79.47247487442208 L 309.15006485569893 79.43007388777868 L 308.93173953849373 79.38668379803387 L 308.7143849628454 79.3423089441605 L 308.49802286403025 79.29695376360692 L 308.282674878078 79.25062279185344 L 308.06836253960773 79.20332066195861 L 307.85510727967466 79.155052104096 L 307.6429304236271 79.10582194508117 L 307.43185318897383 79.05563510788902 L 307.22189668326246 79.0044966111614 L 307.0130819019686 78.95241156870541 L 306.80542972639626 78.89938518898188 L 306.59896092159005 78.84542277458458 L 306.3936961342584 78.79052972170999 L 306.18965589070893 78.73471151961766 L 305.98686059479604 78.67797375008126 L 305.7853305258802 78.62032208683051 L 305.58508583680054 78.56176229498365 L 305.38614655185893 78.50230023047108 L 305.18853256481816 78.4419418394497 L 304.9922636369123 78.3806931577083 L 304.79735939487045 78.31856031006403 L 304.60383932895456 78.25554950974987 L 304.4117227910098 78.19166705779335 L 304.22102899252997 78.12691934238643 L 304.03177700273596 78.06131283824668 L 303.8439857466691 77.99485410596986 L 303.65767400329844 77.9275497913738 L 303.47286040364304 77.8594066248339 L 303.28956342890893 77.79043142060999 L 303.1078014086408 77.72063107616503 L 302.9275925188892 77.6500125714753 L 302.7489547803929 77.57858296833243 L 302.571906056777 77.5063494096372 L 302.3964640527662 77.43331911868528 L 302.2226463124148 77.35949939844491 L 302.05047021735186 77.2848976308266 L 301.8799529850435 77.20952127594495 L 301.71111166707084 77.13337787137262 L 301.54396314742496 77.05647503138663 L 301.37852414081857 76.97882044620688 L 301.21481119101446 76.90042188122719 L 301.05284066917113 76.82128717623871 L 300.8926287722058 76.741424244646 L 300.73419152117475 76.66084107267568 L 300.5775447596709 76.57954571857778 L 300.42270415224 76.49754631181996 L 300.2696851828137 76.41485105227457 L 300.11850315316144 76.33146820939865 L 299.9691731813602 76.24740612140701 L 299.82171020028267 76.1626731944384 L 299.6761289561041 76.0772779017149 L 299.53244400682763 75.99122878269459 L 299.39066972082844 75.90453444221772 L 299.25082027541697 75.81720354964605 L 299.1129096554212 75.72924483799609 L 298.9769516517883 75.64066710306568 L 298.84295986020516 75.55147920255453 L 298.71094767973943 75.46169005517834 L 298.58092831149906 75.37130863977703 L 298.4529147573126 75.28034399441684 L 298.32691981842873 75.18880521548647 L 298.20295609423636 75.09670145678756 L 298.0810359810046 75.00404192861922 L 297.96117167064324 74.91083589685704 L 297.84337514948334 74.81709268202654 L 297.7276581970789 74.72282165837106 L 297.6140323850287 74.62803225291444 L 297.50250907581926 74.53273394451821 L 297.3930994216886 74.43693626293381 L 297.2858143635109 74.34064878784955 L 297.1806646297027 74.24388114793271 L 297.0776607351496 74.14664301986664 L 296.9768129801553 74.04894412738312 L 296.8781314494112 73.95079424028998 L 296.78162601098825 73.85220317349413 L 296.6873063153498 73.75318078602011 L 296.5951817943868 73.65373698002414 L 296.5052616604746 73.55388169980392 L 296.4175549055517 73.45362493080431 L 296.33207030022044 73.35297669861863 L 296.2488163928701 73.25194706798624 L 296.1678015088221 73.150546141786 L 296.0890337494973 73.04878406002604 L 296.012520991606 72.94667099882972 L 295.9382708863602 72.84421716941809 L 295.8662908587086 72.7414328170887 L 295.796588106594 72.63832822019111 L 295.7291696002335 72.53491368909913 L 295.6640420814215 72.43119956517967 L 295.6012120628556 72.32719621975868 L 295.5406858274854 72.22291405308405 L 295.4824694278839 72.11836349328554 L 295.4265686856426 72.01355499533202 L 295.3729891907892 71.90849903998593 L 295.32173630122844 71.80320613275525 L 295.2728151422066 71.69768680284297 L 295.2262306057987 71.59195160209414 L 295.1819873504198 71.48601110394075 L 295.1400898003584 71.37987590234431 L 295.1005421453346 71.27355661073652 L 295.063348340081 71.16706386095798 L 295.0285121039471 71.06040830219489 L 294.9960369205275 70.95360059991427 L 294.96592603731347 70.84665143479731 L 294.9381824653682 70.73957150167143 L 294.91280897902584 70.63237150844071 L 294.88980811561385 70.52506217501512 L 294.86918217519934 70.41765423223859 L 294.85093322035925 70.31015842081588 L 294.83506307597384 70.20258549023856 L 294.8215733290443 70.09494619771006 L 294.8104653285341 69.98725130706991 L 294.801740185234 69.87951158771745 L 294.7953987716511 69.7717378135348 L 294.7914417219215 69.6639407618096 L 294.78986943174675 69.55613121215717 L 294.7906820583547 69.44831994544265 L 294.7938795204833 69.34051774270286 L 294.799461498389 69.23273538406823 L 294.8074274338787 69.12498364768483 L 294.8177765303654 69.01727330863649 L 294.83050775294817 68.90961513786736 L 294.8456198285153 68.8020199011048 L 294.86311124587183 68.69449835778282 L 294.8829802558907 68.58706125996616 L 294.9052248716873 68.47971935127507 L 294.92984286881875 68.37248336581096 L 294.95683178550576 68.26536402708301 L 294.9861889228792 68.15837204693585 L 295.0179113452497 68.0515181244783 L 295.05199588040153 67.94481294501361 L 295.08843911990965 67.83826717897075 L 295.1272374194803 67.73189148083758 L 295.16838689931603 67.62569648809524 L 295.21188344450303 67.51969282015453 L 295.25772270542313 67.41389107729388 L 295.3059000981883 67.30830183959944 L 295.3564108050996 67.20293566590698 L 295.4092497751282 67.09780309274605 L 295.4644117244213 66.99291463328636 L 295.52189113682994 66.88828077628645 L 295.58168226446065 66.78391198504484 L 295.6437791282506 66.67981869635366 L 295.70817551856516 66.57601131945505 L 295.7748649958189 66.47250023500018 L 295.8438408911197 66.36929579401126 L 295.91509630693554 66.26640831684637 L 295.9886241177841 66.16384809216747 L 296.0644169709458 66.06162537591159 L 296.1424672871982 65.95975039026517 L 296.2227672615749 65.85823332264185 L 296.3053088641454 65.75708432466382 L 296.3900838408181 65.65631351114658 L 296.47708371416604 65.55593095908752 L 296.5662997842744 65.45594670665817 L 296.65772312961053 65.35637075220046 L 296.751344607916 65.25721305322686 L 296.8471548571211 65.15848352542464 L 296.94514429628066 65.06019204166431 L 297.0453031265325 64.96234843101232 L 297.147621332077 64.86496247774821 L 297.2520886811789 64.76804392038615 L 297.35869472719037 64.6716024507011 L 297.46742880959556 64.57564771275969 L 297.57828005507696 64.48018930195572 L 297.6912373786023 64.38523676405075 L 297.80628948453335 64.29079959421941 L 297.9234248677555 64.19688723610003 L 298.042631814828 64.10350908085012 L 298.1638984051554 64.0106744662074 L 298.2872125121798 63.91839267555599 L 298.4125618045932 63.826672936998044 L 298.53993374757096 63.735524422430984 L 298.66931560402475 63.644956246630315 L 298.8006944358768 63.55497746633813 L 298.9340571053534 63.465597079357494 L 299.06939027629886 63.37682402365261 L 299.2066804155087 63.28866717645507 L 299.34591379408346 63.20113535337614 L 299.48707648880134 63.11423730752517 L 299.63015438351044 63.02798172863435 L 299.7751331705406 62.94237724218968 L 299.92199835213387 62.85743240856846 L 300.07073524189457 62.77315572218327 L 300.22132896625754 62.689555610632524 L 300.3737644659759 62.606640433857706 L 300.52802649762674 62.52441848330739 L 300.68409963513534 62.44289798110813 L 300.84196827131814 62.36208707924221 L 301.00161661944304 62.281993858732456 L 301.1630287148082 62.202626328834185 L 301.3261884163387 62.12399242623426 L 301.4910794082003 62.0461000142574 L 301.65768520143115 61.96895688207989 L 301.8259891355909 61.892570743950664 L 301.9959743804263 61.81694923841989 L 302.1676239375545 61.74209992757509 L 302.3409206421629 61.66803029628498 L 302.5158471647254 61.594747751450974 L 302.6923860127356 61.52225962126647 L 302.87051953245566 61.45057315448409 L 303.0502299106822 61.37969551969077 L 303.2314991765271 61.30963380459092 L 303.4143092032148 61.24039501529768 L 303.59864170989505 61.171986075632276 L 303.7844782634707 61.10441382643165 L 303.9718002804413 61.03768502486444 L 304.1605890287613 60.97180634375517 L 304.3508256297131 60.906784370917066 L 304.5424910597952 60.84262560849323 L 304.7355661526243 60.779336472306426 L 304.930031600852 60.71692329121754 L 305.1258679580955 60.65539230649267 L 305.3230556408824 60.59474967117902 L 305.52157493060855 60.53500144948956 L 305.7214059755106 60.4761536161967 L 305.92252879265044 60.41821205603472 L 306.124923269914 60.361182563111335 L 306.3285691680223 60.305070840328334 L 306.5334461225551 60.24988249881123 L 306.73953364598776 60.19562305734818 L 306.9468111297397 60.14229794183811 L 307.1552578462352 60.08991248474815 L 307.36485295097634 60.038471924580335 L 307.57557548462734 59.98798140534783 L 307.7874043751104 59.93844597606048 L 308.000318439713 59.88987059021993 L 308.2142963872061 59.842260105324286 L 308.4293168199733 59.79561928238236 L 308.64535823615046 59.749952785437586 L 308.8623990317761 59.7052651811016 L 309.0804175029514 59.661560938097594 L 309.29939184801094 59.618844426813446 L 309.5193001697027 59.577119918864696 L 309.74012047737784 59.53639158666736 L 309.9618306891896 59.49666350302072 L 310.18440863430146 59.45793964070003 L 310.40783205510445 59.42022387205927 L 310.63207860944266 59.38351996864385 L 310.8571258728476 59.34783160081355 L 311.0829513407803 59.31316233737539 L 311.3095324308823 59.27951564522683 L 311.5368464852334 59.246894889009056 L 311.76487077261754 59.215303330770496 L 311.99358249079603 59.18474412964065 L 312.22295876878763 59.15522034151416 L 312.4529766691557 59.12673491874524 L 312.6836131903019 59.09929070985244 L 312.91484526876627 59.07289045923376 L 313.14664978153365 59.047536806892275 L 313.37900354834596 59.02323228817208 L 313.61188333402015 58.99997933350481 L 313.84526585077174 58.97778026816654 L 314.0791277605435 58.95663731204531 L 314.31344567733936 58.936552579419114 L 314.54819616956286 58.91752807874447 L 314.78335576236043 58.8995657124556 L 315.01890093996883 58.882667276774164 L 315.25480814806645 58.86683446152964 L 315.49105379612917 58.852068849990374 L 315.727614259789 58.8383719187052 L 315.96446588319674 58.82574503735584 L 316.20158498138744 58.8141894686199 L 316.4389478426488 58.80370636804463 L 316.67653073089264 58.79429678393135 L 316.91430988802796 58.78596165723063 L 317.1522615363373 58.778701821448195 L 317.390361880854 58.772518002561576 L 317.6285871117422 58.7674108189475 L 317.8669134066772 58.76338078132008 L 318.10531693322815 58.76042829267973 L 318.3437738512411 58.75855364827282 L 318.5822603152229 58.757757035562264 L 318.82075247672594 58.75803853420865 L 319.0592264867328 58.75939811606236 L 319.2976584980412 58.76183564516633 L 319.5360246676487 58.76535087776969 L 319.77430115913694 58.7699434623521 L 320.0124641450554 58.77561293965894 L 320.25048980930393 58.78235874274719 L 320.48835434951445 58.790180197042176 L 320.7260339794312 58.79907652040498 L 320.96350493128915 58.80904682321068 L 321.20074345819114 58.8200901084373 L 321.43772583648206 58.83220527176553 L 321.67442836812165 58.84539110168912 L 321.910827383054 58.85964627963608 L 322.14689924157454 58.87496938010048 L 322.38262033669423 58.891358870785055 L 322.6179670964999 58.90881311275439 L 322.8529159865118 58.92733036059883 L 323.0874435120366 58.94690876260903 L 323.3215262205172 58.967546360961094 L 323.55514070387795 58.98924109191239 L 323.7882636008651 59.01199078600791 L 324.0208715993832 59.03579316829718 L 324.25294143882627 59.06064585856183 L 324.48444991240376 59.086546371553524 L 324.71537386946125 59.113492117242565 L 324.9456902177954 59.141480401076834 L 325.1753759259634 59.17050842425125 L 325.4044080255857 59.20057328398772 L 325.6327636136434 59.2316719738253 L 325.8604198547678 59.263801383920935 L 326.0873539835246 59.29695830136038 L 326.31354330669006 59.33113941047952 L 326.53896520552024 59.366341293195944 L 326.7635971380132 59.40256042935069 L 326.9874166411629 59.439793197060354 L 327.2104013332054 59.478035873079165 L 327.4325289158575 59.517284633171414 L 327.65377717654593 59.557535552493775 L 327.874123990629 59.59878460598787 L 328.093547323609 59.64102766878274 L 328.31202523333536 59.68426051660728 L 328.5295358721993 59.72847882621275 L 328.7460574893181 59.77367817580503 L 328.96156843271046 59.819854045486835 L 329.1760471514618 59.86700181770967 L 329.3894721978788 59.915116777735605 L 329.6018222296347 59.964194114108736 L 329.8130760119033 60.01422891913632 L 330.02321241948255 60.065216189379555 L 330.2322104389066 60.117150826153896 L 330.44004917054775 60.17002763603895 L 330.6467078307061 60.22384133139779 L 330.85216575368776 60.278586530905734 L 331.0564023938717 60.33425776008844 L 331.2593973277641 60.39084945186939 L 331.46113025604063 60.44835594712656 L 331.6615810055767 60.50677149525835 L 331.86072953146436 60.56609025475863 L 332.05855591901695 60.626306293800866 L 332.2550403857606 60.687413590831355 L 332.4501632834124 60.7494060351713 L 332.6439050998451 60.81227742762793 L 332.83624646103857 60.87602148111441 L 333.02716813301697 60.94063182127849 L 333.21665102377216 61.00610198713999 L 333.404676185173 61.07242543173691 L 333.5912248148601 61.139595522780034 L 333.7762782581258 61.20760554331625 L 333.9598180097801 61.276448692400166 L 334.14182571600077 61.34611808577425 L 334.32228317616887 61.41660675655722 L 334.50117234468865 61.487907655940745 L 334.6784753327925 61.56001365389429 L 334.8541744103292 61.63291753987816 L 335.0282520075376 61.7066120235645 L 335.20069071680285 61.78108973556637 L 335.37147329439784 61.85634322817461 L 335.5405826622071 61.93236497610268 L 335.70800190943476 62.00914737723915 L 335.8737142942956 62.086682753407885 L 336.03770324568933 62.164963351135874 L 336.1999523648573 62.24398134242858 L 336.3604454270229 62.323728825552735 L 336.51916638301367 62.40419782582646 L 336.67609936086626 62.4853802964168 L 336.83122866741365 62.567268119144344 L 336.9845387898544 62.64985310529506 L 337.13601439730417 62.733126996439154 L 337.28564034232835 62.817081465256905 L 337.43340166245713 62.90170811637139 L 337.5792835816816 62.986998487188025 L 337.72327151193144 63.0729440487408 L 337.8653510545337 63.159536206545184 L 338.00550800165234 63.24676630145755 L 338.1437283377096 63.33462561054111 L 338.279998240787 63.423105347938154 L 338.41430408400777 63.5121966657487 L 338.54663243689953 63.60189065491518 L 338.6769700667373 63.692178346113444 L 338.80530393986663 63.7830507106496 L 338.9316212230072 63.87449866136293 L 339.05590928453597 63.96651305353456 L 339.1781556957503 64.05908468580196 L 339.29834823211104 64.15220430107904 L 339.41647487446465 64.24586258748187 L 339.5325238102454 64.34005017925986 L 339.64648343465626 64.43475765773233 L 339.75834235182987 64.52997555223035 L 339.86808937596777 64.62569434104383 L 339.97571353245894 64.72190445237362 L 340.0812040589774 64.81859626528879 L 340.1845504065584 64.91576011068861 L 340.2857422406534 65.01338627226951 L 340.3847694421632 65.11146498749672 L 340.4816221084502 65.20998644858041 L 340.5762905543286 65.30894080345658 L 340.66876531303257 65.40831815677221 L 340.7590371371633 65.5081085708748 L 340.84709699961365 65.60830206680606 L 340.9329360944708 65.70888862529992 L 341.0165458378967 65.80985818778434 L 341.0979178689867 65.91120065738723 L 341.17704405060556 66.01290589994605 L 341.25391647020103 66.11496374502133 L 341.3285274405952 66.21736398691358 L 341.40086950075323 66.32009638568397 L 341.47093541652936 66.42315066817822 L 341.53871818139044 66.52651652905398 L 341.60421101711637 66.63018363181126 L 341.6674073744783 66.73414160982621 L 341.728300933893 66.83838006738765 L 341.7868856060554 66.94288858073668 L 341.8431555325471 67.04765669910906 L 341.89710508642224 67.15267394578025 L 341.94872887277046 67.25792981911312 L 341.99802172925615 67.36341379360803 L 342.0449787266348 67.46911532095544 L 342.0895951692456 67.5750238310907 L 342.13186659548165 67.68112873325106 L 342.1717887782355 67.78741941703471 L 342.20935772532215 67.89388525346185 L 342.2445696798782 68.00051559603756 L 342.27742112073753 68.10729978181645 L 342.3079087627834 68.21422713246892 L 342.3360295572771 68.32128695534902 L 342.3617806921625 68.42846854456366 L 342.38515959234763 68.53576118204326 L 342.40616391996195 68.64315413861345 L 342.42479157459024 68.7506366750681 L 342.4410406934825 68.8581980432431 L 342.4549096517404 68.96582748709132 L 342.4663970624797 69.073514243758 L 342.4755017769688 69.18124754465725 L 342.482222884744 69.28901661654876 L 342.4865597137 69.39681068261514 L 342.48851183015756 69.50461896353961 M 342.4886328202136 103.84288737809999 L 342.4874403603099 103.9506979230166 L 342.48386309984386 104.05849768696858 L 342.47790139653847 104.16627589006934 L 342.46955584655916 104.27402175458839 L 342.45882728445395 104.38172450602907 L 342.4457167830701 104.489373374206 L 342.4302256534469 104.59695759432203 L 342.41235544468424 104.70446640804484 L 342.39210794378823 104.81188906458264 L 342.36948517549206 104.91921482175928 L 342.34448940205374 105.02643294708851 L 342.3171231230297 105.1335327188471 L 342.2873890750251 105.24050342714717 L 342.25529023141996 105.34733437500701 L 342.2208298020719 105.45401487942085 L 342.18401123299503 105.56053427242716 L 342.1448382060157 105.66688190217542 L 342.10331463840396 105.77304713399124 L 342.0594446824819 105.87901935143995 L 342.01323272520864 105.9847879573881 L 341.96468338774133 106.09034237506322 L 341.9138015249732 106.19567204911151 L 341.8605922250483 106.30076644665336 L 341.80506080885215 106.40561505833658 L 341.7472128294801 106.51020739938737 L 341.6870540716819 106.61453301065879 L 341.62459055128323 106.71858145967666 L 341.55982851458407 106.82234234168277 L 341.4927744377341 106.92580528067539 L 341.4234350260851 107.02895993044685 L 341.35181721352046 107.13179597561812 L 341.27792816176185 107.23430313267039 L 341.2017752596528 107.33647115097337 L 341.12336612241995 107.43828981381037 L 341.0427085909119 107.53974893939997 L 340.9598107308144 107.64083838191414 L 340.8746808318445 107.74154803249287 L 340.7873274069211 107.84186782025505 L 340.69775919131393 107.94178771330547 L 340.6059851417699 108.04129771973811 L 340.51201443561746 108.14038788863526 L 340.4158564698489 108.23904831106259 L 340.31752086018076 108.33726912106009 L 340.217017440092 108.43504049662859 L 340.1143562598408 108.53235266071201 L 340.0095475854598 108.62919588217505 L 339.90260189772897 108.72556047677627 L 339.793529891128 108.82143680813648 L 339.68234247276666 108.91681528870248 L 339.56905076129414 109.01168638070568 L 339.4536660857871 109.10604059711594 L 339.3361999846171 109.19986850259023 L 339.2166642042962 109.29316071441622 L 339.09507069830295 109.38590790345046 L 338.9714316258865 109.47810079505132 L 338.84575935085115 109.5697301700065 L 338.71806644031966 109.66078686545482 L 338.5883656634767 109.75126177580265 L 338.45666999029174 109.84114585363433 L 338.32299259022255 109.930430110617 L 338.1873468308976 110.01910561839935 L 338.0497462767798 110.1071635095045 L 337.9102046878099 110.19459497821673 L 337.7687360180305 110.281391281462 L 337.6253544141908 110.36754373968236 L 337.4800742143316 110.45304373770374 L 337.3329099463518 110.53788272559761 L 337.18387632655555 110.62205221953587 L 337.03298825818075 110.70554380263928 L 336.8802608299084 110.7883491258191 L 336.7257093143541 110.870459908612 L 336.56934916654063 110.95186794000816 L 336.4111960223524 111.03256507927225 L 336.25126569697204 111.11254325675759 L 336.0895741832989 111.1917944747131 L 335.9261376503495 111.27031080808302 L 335.76097244164106 111.34808440529943 L 335.5940950735567 111.42510748906744 L 335.4255222336942 111.50137235714286 L 335.25527077919713 111.5768713831024 L 335.08335773506894 111.65159701710641 L 334.9098002924709 111.72554178665376 L 334.73461580700257 111.79869829732912 L 334.55782179696655 111.87105923354237 L 334.3794359416165 111.9426173592602 L 334.1994760793893 112.01336551872967 L 334.0179602061212 112.08329663719377 L 333.8349064732482 112.15240372159896 L 333.6503331859912 112.22067986129437 L 333.46425880152503 112.28811822872294 L 333.27670192713305 112.3547120801041 L 333.0876813183464 112.42045475610823 L 332.8972158770685 112.48533968252251 L 332.70532464968477 112.54936037090836 L 332.51202682515793 112.61251041925031 L 332.3173417331094 112.67478351259614 L 332.1212888418862 112.7361734236884 L 331.923887756614 112.79667401358715 L 331.7251582172369 112.85627923228382 L 331.5251200965432 112.9149831193062 L 331.3237933981783 112.97277980431453 L 331.1211982546442 113.02966350768844 L 330.9173549252865 113.08562854110501 L 330.7122837942681 113.14066930810755 L 330.5060053685314 113.19478030466522 L 330.2985402757471 113.24795611972343 L 330.0899092622514 113.30019143574502 L 329.8801331909719 113.35148102924191 L 329.66923303934095 113.40181977129748 L 329.45722989719786 113.45120262807949 L 329.2441449646803 113.4996246613434 L 329.02999955010387 113.54708102892624 L 328.81481506783155 113.5935669852308 L 328.5986130361323 113.63907788170019 L 328.38141507502917 113.68360916728267 L 328.1632429041372 113.72715638888681 L 327.9441183404916 113.76971519182675 L 327.7240632963663 113.81128132025763 L 327.5030997770822 113.85185061760127 L 327.28124987880716 113.89141902696173 L 327.0585357863461 113.92998259153106 L 326.8349797709227 113.96753745498492 L 326.6106041879522 114.00407986186828 L 326.38543147480596 114.0396061579709 L 326.1594841485675 114.07411279069275 L 325.9327848037813 114.10759630939936 L 325.7053561101929 114.14005336576672 L 325.4772208104821 114.17148071411626 L 325.2484017179888 114.20187521173932 L 325.01892171443154 114.2312338192115 L 324.7888037476194 114.25955360069648 L 324.5580708291574 114.28683172423972 L 324.32674603214497 114.31306546205161 L 324.0948524888692 114.33825219078024 L 323.86241338849106 114.36238939177369 L 323.6294519747269 114.385474651332 L 323.3959915435241 114.40750566094846 L 323.162055440731 114.42848021754044 L 322.9276670597631 114.44839622366977 L 322.6928498392631 114.46725168775245 L 322.4576272607574 114.48504472425776 L 322.2220228463079 114.5017735538969 L 321.98606015615957 114.51743650380084 L 321.74976278638485 114.53203200768762 L 321.5131543665238 114.54555860601904 L 321.2762585572213 114.55801494614654 L 321.03909904786076 114.56939978244647 L 320.8016995541955 114.5797119764447 L 320.5640838159772 114.58895049693041 L 320.3262755945815 114.59711442005927 L 320.0882986706324 114.60420292944576 L 319.85017684162403 114.61021531624485 L 319.61193391954083 114.61515097922286 L 319.3735937284765 114.61900942481762 L 319.13518010225147 114.62179026718778 L 318.89671688202975 114.62349322825142 L 318.6582279139346 114.62411813771385 L 318.4197370466641 114.62366493308464 L 318.18126812910623 114.6221336596839 L 317.9428450079541 114.61952447063767 L 317.704491525321 114.61583762686269 L 317.46623151635663 114.61107349704025 L 317.2280888068634 114.60523255757938 L 316.9900872109137 114.59831539256916 L 316.7522505284689 114.59032269372032 L 316.51460254299894 114.58125526029607 L 316.2771670191044 114.57111399903224 L 316.0399677001398 114.55989992404645 L 315.80302830583935 114.54761415673688 L 315.56637252994506 114.53425792567003 L 315.33002403783723 114.51983256645786 L 315.0940064641682 114.5043395216243 L 314.85834341049866 114.48778034046089 L 314.6230584429375 114.47015667887194 L 314.3881750897855 114.45147029920896 L 314.1537168391822 114.43172307009434 L 313.91970713675727 114.4109169662345 L 313.68616938328597 114.3890540682225 L 313.453126932349 114.36613656232994 L 313.2206030879973 114.3421667402883 L 312.9886211024215 114.31714699905983 L 312.75720417362686 114.29107984059777 L 312.52637544311335 114.26396787159625 L 312.2961579935618 114.2358138032296 L 312.06657484652516 114.20662045088118 L 311.83764896012696 114.1763907338619 L 311.6094032267649 114.14512767511825 L 311.3818604708223 114.11283440093007 L 311.15504344638504 114.07951414059788 L 310.9289748349665 114.04517022611994 L 310.70367724323955 114.00980609185906 L 310.4791732007755 113.9734252741992 L 310.2554851577916 113.93603141119183 L 310.0326354829057 113.89762824219208 L 309.8106464608996 113.85821960748484 L 309.58954029049045 113.81780944790074 L 309.36933908211114 113.77640180442206 L 309.15006485569893 113.73400081777866 L 308.93173953849373 113.69061072803386 L 308.7143849628454 113.64623587416048 L 308.49802286403025 113.60088069360691 L 308.282674878078 113.55454972185343 L 308.06836253960773 113.5072475919586 L 307.85510727967466 113.45897903409599 L 307.6429304236271 113.40974887508116 L 307.43185318897383 113.359562037889 L 307.22189668326246 113.30842354116139 L 307.0130819019686 113.2563384987054 L 306.80542972639626 113.20331211898187 L 306.59896092159005 113.14934970458457 L 306.3936961342584 113.09445665170998 L 306.18965589070893 113.03863844961765 L 305.98686059479604 112.98190068008125 L 305.7853305258802 112.9242490168305 L 305.58508583680054 112.86568922498364 L 305.38614655185893 112.80622716047107 L 305.18853256481816 112.74586876944969 L 304.9922636369123 112.68462008770828 L 304.79735939487045 112.62248724006402 L 304.60383932895456 112.55947643974986 L 304.4117227910098 112.49559398779334 L 304.22102899252997 112.43084627238642 L 304.03177700273596 112.36523976824667 L 303.8439857466691 112.29878103596985 L 303.65767400329844 112.2314767213738 L 303.47286040364304 112.16333355483388 L 303.28956342890893 112.09435835060998 L 303.1078014086408 112.02455800616502 L 302.9275925188892 111.95393950147529 L 302.7489547803929 111.88250989833242 L 302.571906056777 111.81027633963718 L 302.3964640527662 111.73724604868526 L 302.2226463124148 111.6634263284449 L 302.05047021735186 111.5888245608266 L 301.8799529850435 111.51344820594494 L 301.71111166707084 111.4373048013726 L 301.54396314742496 111.36040196138661 L 301.37852414081857 111.28274737620687 L 301.21481119101446 111.20434881122718 L 301.05284066917113 111.1252141062387 L 300.8926287722058 111.04535117464599 L 300.73419152117475 110.96476800267567 L 300.5775447596709 110.88347264857777 L 300.42270415224 110.80147324181995 L 300.2696851828137 110.71877798227456 L 300.11850315316144 110.63539513939864 L 299.9691731813602 110.551333051407 L 299.82171020028267 110.46660012443839 L 299.6761289561041 110.38120483171488 L 299.53244400682763 110.29515571269458 L 299.39066972082844 110.20846137221771 L 299.25082027541697 110.12113047964604 L 299.1129096554212 110.03317176799608 L 298.9769516517883 109.94459403306567 L 298.84295986020516 109.85540613255452 L 298.71094767973943 109.76561698517833 L 298.58092831149906 109.67523556977702 L 298.4529147573126 109.58427092441683 L 298.32691981842873 109.49273214548646 L 298.20295609423636 109.40062838678755 L 298.0810359810046 109.3079688586192 L 297.96117167064324 109.21476282685703 L 297.84337514948334 109.12101961202653 L 297.7276581970789 109.02674858837105 L 297.6140323850287 108.93195918291443 L 297.50250907581926 108.8366608745182 L 297.3930994216886 108.7408631929338 L 297.2858143635109 108.64457571784953 L 297.1806646297027 108.5478080779327 L 297.0776607351496 108.45056994986663 L 296.9768129801553 108.35287105738311 L 296.8781314494112 108.25472117028997 L 296.78162601098825 108.15613010349412 L 296.6873063153498 108.0571077160201 L 296.5951817943868 107.95766391002412 L 296.5052616604746 107.85780862980391 L 296.4175549055517 107.7575518608043 L 296.33207030022044 107.65690362861862 L 296.2488163928701 107.55587399798623 L 296.1678015088221 107.45447307178598 L 296.0890337494973 107.35271099002603 L 296.012520991606 107.2505979288297 L 295.9382708863602 107.14814409941808 L 295.8662908587086 107.04535974708868 L 295.796588106594 106.9422551501911 L 295.7291696002335 106.83884061909912 L 295.6640420814215 106.73512649517966 L 295.6012120628556 106.63112314975866 L 295.5406858274854 106.52684098308404 L 295.4824694278839 106.42229042328553 L 295.4265686856426 106.317481925332 L 295.3729891907892 106.21242596998592 L 295.32173630122844 106.10713306275524 L 295.2728151422066 106.00161373284296 L 295.2262306057987 105.89587853209413 L 295.1819873504198 105.78993803394074 L 295.1400898003584 105.6838028323443 L 295.1005421453346 105.57748354073651 L 295.063348340081 105.47099079095797 L 295.0285121039471 105.36433523219488 L 294.9960369205275 105.25752752991426 L 294.96592603731347 105.1505783647973 L 294.9381824653682 105.04349843167142 L 294.91280897902584 104.9362984384407 L 294.88980811561385 104.82898910501511 L 294.86918217519934 104.72158116223858 L 294.85093322035925 104.61408535081587 L 294.83506307597384 104.50651242023855 L 294.8215733290443 104.39887312771005 L 294.8104653285341 104.2911782370699 L 294.801740185234 104.18343851771743 L 294.7953987716511 104.07566474353479 L 294.7914417219215 103.96786769180959 L 294.78986943174675 103.86005814215716" stroke-miterlimit="10" stroke-width="2.7769845610000004" stroke-dasharray=""/></g><g><g/><text fill="black" stroke="none" font-family="sans-serif" font-size="11pt" font-style="normal" font-weight="normal" text-decoration="normal" x="288.4781871130534" y="132.15179469699999" text-anchor="start" dominant-baseline="alphabetic" xml:space="preserve">database</text></g><path fill="none" stroke="none"/><g><path fill="white" stroke="black" paint-order="fill stroke markers" d=" M 412.4932181751641 92.947306777 L 471.5769618752266 92.947306777 L 471.5769618752266 137.052355687 L 412.4932181751641 137.052355687 L 412.4932181751641 92.947306777 Z" stroke-miterlimit="10" stroke-width="2.613632528" stroke-dasharray=""/></g><g><g/><text fill="black" stroke="none" font-family="sans-serif" font-size="11pt" font-style="normal" font-weight="normal" text-decoration="normal" x="430.2169137556641" y="120.717152387" text-anchor="start" dominant-baseline="alphabetic" xml:space="preserve">info</text></g></g><g><g><g/><g/><path fill="none" stroke="black" paint-order="fill stroke markers" d=" M 8.16760165 8.16760165 L 560.7113923690431 8.16760165 L 560.7113923690431 609.1397310570001 L 8.16760165 609.1397310570001 L 8.16760165 8.16760165 Z" stroke-miterlimit="10" stroke-width="1.3612669416666667" stroke-dasharray=""/><path fill="white" stroke="black" paint-order="fill stroke markers" d=" M 8.16760165 8.16760165 L 8.16760165 31.036886269999997 L 233.14284833789063 31.036886269999997 L 244.5774906478906 19.60224396 L 244.5774906478906 8.16760165 L 8.16760165 8.16760165" stroke-miterlimit="10" stroke-width="1.3612669416666667" stroke-dasharray=""/><text fill="black" stroke="none" font-family="sans-serif" font-size="11pt" font-style="normal" font-weight="bold" text-decoration="normal" x="24.502804949999998" y="23.686044784999996" text-anchor="start" dominant-baseline="alphabetic" xml:space="preserve">sd</text><text fill="black" stroke="none" font-family="sans-serif" font-size="11pt" font-style="normal" font-weight="normal" text-decoration="normal" x="45.68391151738281" y="23.686044784999996" text-anchor="start" dominant-baseline="alphabetic" xml:space="preserve">donasi (unregsitered user)</text></g><path fill="white" stroke="black" paint-order="fill stroke markers" d=" M 34.303926929999996 169.72276228699997 L 159.85759786796874 169.72276228699997 L 174.55928083796874 184.42444525699997 L 174.55928083796874 223.62893317699996 L 34.303926929999996 223.62893317699996 L 34.303926929999996 169.72276228699997 M 159.85759786796874 169.72276228699997 L 159.85759786796874 184.42444525699997 L 174.55928083796874 184.42444525699997" stroke-miterlimit="10" stroke-width="1.3612669416666667" stroke-dasharray=""/><g><text fill="black" stroke="none" font-family="sans-serif" font-size="11pt" font-style="normal" font-weight="normal" text-decoration="normal" x="57.17321154999999" y="192.59204690699994" text-anchor="start" dominant-baseline="alphabetic" xml:space="preserve">input nama,</text><text fill="black" stroke="none" font-family="sans-serif" font-size="11pt" font-style="normal" font-weight="normal" text-decoration="normal" x="57.17321154999999" y="208.92725020699993" text-anchor="start" dominant-baseline="alphabetic" xml:space="preserve">email, nominal</text></g><g><g><rect fill="white" stroke="none" x="123.76159445565104" y="248.13173812699998" width="68.44383491578125" height="21.23576429"/></g><text fill="black" stroke="none" font-family="sans-serif" font-size="11pt" font-style="normal" font-weight="normal" text-decoration="normal" x="126.21187495065104" y="262.833421097" text-anchor="start" dominant-baseline="alphabetic" xml:space="preserve">kirim data</text></g><g><path fill="none" stroke="black" paint-order="fill stroke markers" d=" M 104.43160388398437 269.36750241699997 L 198.08610255943228 269.36750241699997" stroke-miterlimit="10" stroke-width="1.3612669416666667" stroke-dasharray=""/><g transform="translate(211.53541994309896,269.36750241699997) translate(-211.53541994309896,-269.36750241699997)"><path fill="black" stroke="none" paint-order="stroke fill markers" d=" M 197.92275052643228 262.56116770866663 L 211.53541994309896 269.36750241699997 L 197.92275052643228 276.1738371253333 Z"/></g></g><path fill="white" stroke="black" paint-order="fill stroke markers" d=" M 130.387700569681 293.87030736699995 L 277.98145634651695 293.87030736699995 L 292.68313931651693 308.57199033699993 L 292.68313931651693 347.77647825699995 L 130.387700569681 347.77647825699995 L 130.387700569681 293.87030736699995 M 277.98145634651695 293.87030736699995 L 277.98145634651695 308.57199033699993 L 292.68313931651693 308.57199033699993" stroke-miterlimit="10" stroke-width="1.3612669416666667" stroke-dasharray=""/><g><text fill="black" stroke="none" font-family="sans-serif" font-size="11pt" font-style="normal" font-weight="normal" text-decoration="normal" x="153.256985189681" y="316.7395919869999" text-anchor="start" dominant-baseline="alphabetic" xml:space="preserve">input catatan/doa,</text><text fill="black" stroke="none" font-family="sans-serif" font-size="11pt" font-style="normal" font-weight="normal" text-decoration="normal" x="153.256985189681" y="333.0747952869999" text-anchor="start" dominant-baseline="alphabetic" xml:space="preserve">bukti transfer</text></g><g><g><rect fill="white" stroke="none" x="230.86541051476567" y="372.27928320699993" width="68.44383491578125" height="21.23576429"/></g><text fill="black" stroke="none" font-family="sans-serif" font-size="11pt" font-style="normal" font-weight="normal" text-decoration="normal" x="233.31569100976566" y="386.9809661769999" text-anchor="start" dominant-baseline="alphabetic" xml:space="preserve">kirim data</text></g><g><path fill="none" stroke="black" paint-order="fill stroke markers" d=" M 211.53541994309896 393.51504749699996 L 305.1899186185469 393.51504749699996" stroke-miterlimit="10" stroke-width="1.3612669416666667" stroke-dasharray=""/><g transform="translate(318.6392360022136,393.51504749699996) translate(-318.6392360022136,-393.51504749699996)"><path fill="black" stroke="none" paint-order="stroke fill markers" d=" M 305.0265665855469 386.7087127886666 L 318.6392360022136 393.51504749699996 L 305.0265665855469 400.3213822053333 Z"/></g></g><g><g><rect fill="white" stroke="none" x="337.96922657388023" y="418.01785244699994" width="84.73587287964844" height="21.23576429"/></g><text fill="black" stroke="none" font-family="sans-serif" font-size="11pt" font-style="normal" font-weight="normal" text-decoration="normal" x="340.41950706888025" y="432.7195354169999" text-anchor="start" dominant-baseline="alphabetic" xml:space="preserve">kirim respon</text></g><g><path fill="none" stroke="black" paint-order="fill stroke markers" d=" M 318.6392360022136 439.25361673699996 L 428.5857726415287 439.25361673699996" stroke-miterlimit="10" stroke-width="1.3612669416666667" stroke-dasharray="6.53408132"/><g transform="translate(442.03509002519536,439.25361673699996) translate(-442.03509002519536,-439.25361673699996)"><path fill="black" stroke="none" paint-order="stroke fill markers" d=" M 428.4224206085287 432.4472820286666 L 442.03509002519536 439.25361673699996 L 428.4224206085287 446.0599514453333 Z"/></g></g><path fill="white" stroke="black" paint-order="fill stroke markers" d=" M 349.49511296134773 463.75642168699994 L 519.8733841190431 463.75642168699994 L 534.575067089043 478.4581046569999 L 534.575067089043 533.9977958769999 L 349.49511296134773 533.9977958769999 L 349.49511296134773 463.75642168699994 M 519.8733841190431 463.75642168699994 L 519.8733841190431 478.4581046569999 L 534.575067089043 478.4581046569999" stroke-miterlimit="10" stroke-width="1.3612669416666667" stroke-dasharray=""/><g><text fill="black" stroke="none" font-family="sans-serif" font-size="11pt" font-style="normal" font-weight="normal" text-decoration="normal" x="372.3643975813477" y="486.6257063069999" text-anchor="start" dominant-baseline="alphabetic" xml:space="preserve">info sukses [status,</text><text fill="black" stroke="none" font-family="sans-serif" font-size="11pt" font-style="normal" font-weight="normal" text-decoration="normal" x="372.3643975813477" y="502.9609096069999" text-anchor="start" dominant-baseline="alphabetic" xml:space="preserve">nomor referensi] atau</text><text fill="black" stroke="none" font-family="sans-serif" font-size="11pt" font-style="normal" font-weight="normal" text-decoration="normal" x="372.3643975813477" y="519.296112907" text-anchor="start" dominant-baseline="alphabetic" xml:space="preserve">gagal [status]</text></g></g><g/><g/><g/><g/></g></svg>